<svg width="48" height="48" viewBox="0 0 48 48" fill="none" xmlns="http://www.w3.org/2000/svg">
<path fill-rule="evenodd" clip-rule="evenodd" d="M24.0078 4C12.9678 4 4.00781 12.96 4.00781 24C4.00781 35.04 12.9678 44 24.0078 44C35.0478 44 44.0078 35.04 44.0078 24C44.0078 12.96 35.0478 4 24.0078 4ZM14.1561 36.56C15.0161 34.76 20.2561 33 24.0161 33C27.7761 33 33.0361 34.76 33.8761 36.56C31.1561 38.72 27.7361 40 24.0161 40C20.2961 40 16.8761 38.72 14.1561 36.56ZM24.0156 29C26.9356 29 33.8756 30.18 36.7356 33.66C38.7756 30.98 40.0156 27.64 40.0156 24C40.0156 15.18 32.8356 8.00001 24.0156 8.00001C15.1956 8.00001 8.01557 15.18 8.01557 24C8.01557 27.64 9.25557 30.98 11.2956 33.66C14.1556 30.18 21.0956 29 24.0156 29ZM24.0156 12C20.1356 12 17.0156 15.12 17.0156 19C17.0156 22.88 20.1356 26 24.0156 26C27.8956 26 31.0156 22.88 31.0156 19C31.0156 15.12 27.8956 12 24.0156 12ZM21.0001 19C21.0001 20.66 22.3401 22 24.0001 22C25.6601 22 27.0001 20.66 27.0001 19C27.0001 17.34 25.6601 16 24.0001 16C22.3401 16 21.0001 17.34 21.0001 19Z" fill="white"/>
</svg>
