<svg width="50" height="48" viewBox="0 0 50 48" fill="none" xmlns="http://www.w3.org/2000/svg">
<path fill-rule="evenodd" clip-rule="evenodd" d="M26.1041 5.16L44.3146 23.16C45.043 23.88 45.5084 24.9 45.5084 26C45.5084 27.1 45.0633 28.1 44.3146 28.82L30.1508 42.82C29.4224 43.56 28.4107 44 27.2979 44C26.185 44 25.1733 43.56 24.4449 42.84L6.23433 24.84C5.48567 24.1 5.04053 23.1 5.04053 22V8C5.04053 5.8 6.86158 4 9.08732 4H23.2511C24.3639 4 25.3756 4.44 26.1041 5.16ZM9.08732 22L27.2979 40.02L41.4616 25.98L23.2511 7.98001V8.00001H9.08732V22ZM14.1458 10C12.4696 10 11.1107 11.3431 11.1107 13C11.1107 14.6569 12.4696 16 14.1458 16C15.822 16 17.1809 14.6569 17.1809 13C17.1809 11.3431 15.822 10 14.1458 10ZM20.2159 28C19.4673 27.24 19.0019 26.24 19.0019 25.1C19.0019 22.84 20.8634 21 23.1499 21C24.283 21 25.3351 21.46 26.0838 22.22L27.2978 23.4L28.5119 22.2C29.2605 21.46 30.2924 21 31.4458 21C33.7322 21 35.5937 22.84 35.5937 25.1C35.5937 26.22 35.1284 27.26 34.3797 28L27.2978 35L20.2159 28Z" fill="white"/>
<path fill-rule="evenodd" clip-rule="evenodd" d="M26.1041 5.16L44.3146 23.16C45.043 23.88 45.5084 24.9 45.5084 26C45.5084 27.1 45.0633 28.1 44.3146 28.82L30.1508 42.82C29.4224 43.56 28.4107 44 27.2979 44C26.185 44 25.1733 43.56 24.4449 42.84L6.23433 24.84C5.48567 24.1 5.04053 23.1 5.04053 22V8C5.04053 5.8 6.86158 4 9.08732 4H23.2511C24.3639 4 25.3756 4.44 26.1041 5.16ZM9.08732 22L27.2979 40.02L41.4616 25.98L23.2511 7.98001V8.00001H9.08732V22ZM14.1458 10C12.4696 10 11.1107 11.3431 11.1107 13C11.1107 14.6569 12.4696 16 14.1458 16C15.822 16 17.1809 14.6569 17.1809 13C17.1809 11.3431 15.822 10 14.1458 10ZM20.2159 28C19.4673 27.24 19.0019 26.24 19.0019 25.1C19.0019 22.84 20.8634 21 23.1499 21C24.283 21 25.3351 21.46 26.0838 22.22L27.2978 23.4L28.5119 22.2C29.2605 21.46 30.2924 21 31.4458 21C33.7322 21 35.5937 22.84 35.5937 25.1C35.5937 26.22 35.1284 27.26 34.3797 28L27.2978 35L20.2159 28Z" fill="white"/>
<path fill-rule="evenodd" clip-rule="evenodd" d="M26.1041 5.16L44.3146 23.16C45.043 23.88 45.5084 24.9 45.5084 26C45.5084 27.1 45.0633 28.1 44.3146 28.82L30.1508 42.82C29.4224 43.56 28.4107 44 27.2979 44C26.185 44 25.1733 43.56 24.4449 42.84L6.23433 24.84C5.48567 24.1 5.04053 23.1 5.04053 22V8C5.04053 5.8 6.86158 4 9.08732 4H23.2511C24.3639 4 25.3756 4.44 26.1041 5.16ZM9.08732 22L27.2979 40.02L41.4616 25.98L23.2511 7.98001V8.00001H9.08732V22ZM14.1458 10C12.4696 10 11.1107 11.3431 11.1107 13C11.1107 14.6569 12.4696 16 14.1458 16C15.822 16 17.1809 14.6569 17.1809 13C17.1809 11.3431 15.822 10 14.1458 10ZM20.2159 28C19.4673 27.24 19.0019 26.24 19.0019 25.1C19.0019 22.84 20.8634 21 23.1499 21C24.283 21 25.3351 21.46 26.0838 22.22L27.2978 23.4L28.5119 22.2C29.2605 21.46 30.2924 21 31.4458 21C33.7322 21 35.5937 22.84 35.5937 25.1C35.5937 26.22 35.1284 27.26 34.3797 28L27.2978 35L20.2159 28Z" fill="white"/>
</svg>
